<?xml version="1.0" standalone="no"?>
<!DOCTYPE svg PUBLIC "-//W3C//DTD SVG 20010904//EN"
 "http://www.w3.org/TR/2001/REC-SVG-20010904/DTD/svg10.dtd">
<svg version="1.0" xmlns="http://www.w3.org/2000/svg"
 width="468pt" height="99pt" viewBox="0 0 468 99"
 preserveAspectRatio="xMidYMid meet">
<metadata>
Created by potrace 1.7, written by Peter Selinger 2001-2005
</metadata>
<g transform="translate(0,99) scale(0.040696,-0.040696)"
fill="#5569B9" stroke="none">
<path d="M1636 2374 c-36 -35 -32 -105 7 -126 13 -7 80 -13 160 -16 l137 -5 0
-523 0 -524 -150 0 c-172 0 -214 -10 -222 -55 -8 -41 5 -78 33 -93 18 -9 125
-11 452 -10 411 3 429 4 443 22 24 34 18 91 -12 115 -25 19 -40 21 -200 21
l-174 0 0 589 c0 523 -2 591 -16 605 -23 24 -435 24 -458 0z"/>
<path d="M5082 2374 c-17 -12 -22 -25 -22 -59 0 -56 20 -71 113 -80 l67 -7 0
-523 0 -522 -72 -6 c-58 -5 -77 -11 -90 -28 -26 -31 -23 -75 7 -104 23 -24 30
-25 145 -25 67 0 130 5 140 10 30 16 40 74 40 240 l0 156 44 36 43 37 147
-161 146 -160 -33 -22 c-37 -25 -48 -77 -23 -111 13 -19 28 -20 203 -23 180
-3 190 -2 216 18 21 16 27 30 27 58 0 20 -4 42 -8 49 -12 19 -60 33 -115 33
l-52 1 -190 206 c-104 114 -190 210 -190 213 0 9 141 130 200 171 59 42 91 55
164 69 79 15 101 32 101 80 0 66 -14 70 -232 70 -175 0 -189 -1 -208 -20 -27
-27 -25 -66 6 -97 31 -31 42 -17 -126 -157 l-115 -96 -5 375 c-4 319 -7 377
-20 385 -8 5 -76 10 -150 10 -107 0 -140 -3 -158 -16z"/>
<path d="M775 2009 c-170 -25 -272 -104 -295 -229 -18 -97 8 -187 72 -246 73
-69 157 -93 368 -104 186 -9 241 -24 265 -71 38 -72 5 -146 -82 -186 -48 -22
-71 -26 -143 -26 -157 1 -265 51 -328 153 -41 66 -74 86 -115 71 -43 -17 -49
-41 -45 -191 3 -119 6 -141 22 -159 25 -27 74 -27 128 0 40 20 42 20 122 4 44
-10 133 -20 196 -22 215 -10 351 50 415 182 38 77 38 184 0 261 -53 107 -155
147 -418 164 -219 14 -258 26 -282 84 -30 72 19 142 123 172 47 14 68 15 134
6 98 -14 146 -39 228 -117 80 -77 100 -88 134 -75 39 14 46 40 46 167 0 139
-10 163 -66 163 -19 0 -49 -7 -66 -16 -20 -11 -44 -14 -67 -11 -20 4 -79 13
-131 21 -105 17 -127 18 -215 5z"/>
<path d="M3070 2010 c-143 -13 -252 -54 -287 -106 -19 -30 -11 -84 18 -110 29
-26 71 -21 179 22 82 32 106 37 180 38 75 0 91 -3 131 -26 52 -31 84 -82 93
-151 5 -43 4 -48 -12 -43 -98 29 -287 34 -395 11 -230 -48 -342 -191 -307
-389 16 -91 63 -161 136 -205 147 -88 392 -61 545 60 20 16 39 29 42 29 3 0 8
-18 12 -40 11 -66 39 -80 161 -80 121 0 148 8 162 49 25 70 -17 109 -120 110
l-47 1 -3 293 c-3 275 -4 295 -26 347 -42 106 -132 171 -262 190 -71 10 -88
10 -200 0z m170 -499 c36 -5 84 -14 108 -20 l42 -12 0 -62 c0 -99 -44 -151
-174 -209 -52 -23 -87 -31 -154 -34 -79 -5 -91 -3 -132 19 -109 59 -122 180
-28 250 58 42 123 61 263 75 6 1 39 -2 75 -7z"/>
<path d="M4355 2013 c-209 -20 -390 -174 -439 -374 -69 -280 83 -545 356 -623
63 -18 179 -20 279 -6 140 20 317 120 350 198 24 56 24 73 -1 100 -35 37 -78
29 -167 -31 -103 -71 -130 -84 -209 -103 -148 -34 -300 24 -376 143 -74 117
-71 277 7 383 46 62 129 117 198 131 169 33 277 -11 373 -151 54 -80 85 -98
138 -80 51 16 60 53 54 217 -7 163 -16 183 -83 183 -44 0 -76 -19 -87 -50 -3
-10 -25 -5 -86 18 -78 31 -189 53 -242 50 -14 -1 -43 -3 -65 -5z"/>
<path d="M8120 2010 c-81 -7 -188 -33 -231 -56 -79 -40 -92 -141 -22 -173 29
-13 51 -9 168 37 77 30 102 35 175 36 72 0 92 -4 128 -24 51 -29 87 -87 94
-153 5 -41 3 -47 -11 -43 -114 34 -341 32 -455 -4 -193 -61 -279 -194 -246
-380 15 -86 62 -155 134 -198 149 -89 393 -63 547 59 20 16 39 29 42 29 2 0 7
-18 11 -39 10 -67 39 -81 163 -81 99 0 138 9 155 34 10 15 10 78 0 94 -11 17
-67 32 -119 32 l-43 0 0 260 c0 263 -6 327 -40 405 -38 86 -131 148 -247 165
-74 10 -90 10 -203 0z m170 -499 c36 -5 84 -14 108 -20 l42 -12 0 -55 c0 -73
-19 -114 -71 -156 -73 -57 -157 -89 -257 -95 -79 -4 -91 -3 -132 19 -108 59
-122 182 -28 251 58 42 123 61 263 75 6 1 39 -2 75 -7z"/>
<path d="M9722 2010 c-112 -17 -194 -62 -304 -169 l-58 -55 0 90 c0 57 -4 94
-12 102 -8 8 -60 12 -168 12 -185 0 -200 -6 -200 -75 0 -63 21 -75 132 -75
l88 0 0 -329 0 -329 -114 -4 c-134 -4 -156 -15 -156 -79 0 -29 6 -42 26 -58
26 -20 37 -21 404 -21 356 0 379 1 401 19 18 14 24 29 24 60 0 73 -8 76 -230
79 l-195 3 0 206 0 206 52 56 c160 170 284 218 412 158 75 -35 115 -35 150 -1
57 57 27 152 -59 188 -43 18 -130 25 -193 16z"/>
<path d="M10565 2014 c-11 -2 -45 -9 -75 -15 -123 -25 -272 -134 -325 -239
-56 -111 -75 -276 -45 -400 51 -216 244 -360 482 -360 130 0 237 18 363 62
142 50 195 89 195 144 0 44 -30 74 -74 74 -18 0 -66 -14 -107 -31 -121 -51
-180 -70 -255 -83 -201 -37 -378 58 -413 222 -6 29 -11 57 -11 62 0 6 154 10
399 10 226 0 410 4 424 9 32 12 41 40 39 116 -7 246 -239 439 -522 434 -30 -1
-64 -3 -75 -5z m155 -159 c98 -15 201 -105 228 -201 7 -23 12 -44 12 -48 0 -3
-148 -6 -329 -6 l-330 0 22 54 c27 64 91 137 150 168 42 22 159 49 187 43 8
-2 35 -7 60 -10z"/>
<path d="M6290 1970 c-26 -26 -27 -90 -2 -113 10 -10 30 -17 45 -17 30 0 14
44 177 -480 96 -305 108 -337 135 -360 24 -20 104 -16 126 7 12 11 44 111 86
265 37 136 70 244 72 242 3 -3 36 -109 72 -236 37 -127 76 -243 87 -257 10
-14 30 -28 45 -32 37 -10 94 8 111 34 8 12 67 201 132 420 118 395 119 397
146 397 39 0 58 24 58 75 0 73 -5 75 -213 75 -215 0 -227 -4 -227 -74 0 -58
17 -70 110 -76 l77 -5 -80 -293 c-44 -161 -83 -289 -87 -285 -4 5 -35 102 -69
217 -34 114 -69 219 -78 232 -30 47 -121 49 -154 4 -11 -14 -46 -119 -80 -235
-34 -115 -64 -213 -68 -217 -5 -6 -171 550 -171 575 0 4 34 7 75 7 91 0 115
17 115 79 0 67 -14 71 -232 71 -175 0 -189 -1 -208 -20z"/>
<path d="M0 790 l0 -410 3255 0 3255 0 0 35 0 35 -3220 0 -3220 0 0 375 0 375
-35 0 -35 0 0 -410z"/>
<path d="M6642 648 c-33 -33 -4 -68 55 -68 l43 0 0 -155 0 -155 -54 0 c-30 0
-61 -3 -70 -6 -19 -7 -21 -45 -4 -62 14 -14 305 -17 326 -3 8 5 12 21 10 37
-3 28 -5 29 -65 32 l-63 3 0 194 0 195 -83 0 c-51 0 -88 -5 -95 -12z"/>
<path d="M7690 620 l0 -40 45 0 45 0 0 40 0 40 -45 0 -45 0 0 -40z"/>
<path d="M8703 509 c-28 -18 -33 -19 -33 -5 0 12 -10 16 -44 16 -24 0 -51 -3
-60 -6 -24 -9 -20 -55 4 -61 18 -5 20 -14 20 -92 0 -80 -2 -87 -22 -96 -27
-12 -35 -40 -18 -60 9 -11 33 -15 80 -15 47 0 71 4 80 15 17 20 9 48 -18 60
-20 9 -22 17 -22 77 0 65 1 67 34 87 18 12 47 21 64 21 49 0 62 -21 62 -103 0
-65 -2 -73 -22 -82 -27 -12 -35 -40 -18 -60 15 -19 130 -21 148 -3 18 18 14
46 -8 60 -17 11 -20 24 -20 99 0 72 -3 91 -21 113 -45 57 -127 73 -186 35z"/>
<path d="M7622 508 c-33 -33 -4 -68 55 -68 l43 0 0 -85 0 -85 -54 0 c-30 0
-61 -3 -70 -6 -19 -7 -21 -45 -4 -62 14 -14 305 -17 326 -3 8 5 12 21 10 37
-3 28 -5 29 -65 32 l-63 3 0 124 0 125 -83 0 c-51 0 -88 -5 -95 -12z"/>
<path d="M9522 508 c-7 -7 -12 -20 -12 -30 0 -19 35 -42 50 -33 6 4 10 -27 10
-82 0 -100 10 -127 59 -160 43 -29 104 -30 149 -3 26 16 32 17 32 5 0 -19 90
-21 108 -3 18 18 14 46 -8 58 -18 10 -20 21 -20 135 l0 125 -69 0 c-50 0 -72
-4 -82 -16 -19 -23 1 -48 40 -52 l31 -3 0 -69 c0 -64 -2 -70 -31 -94 -35 -30
-89 -35 -113 -10 -13 12 -16 39 -16 130 l0 114 -58 0 c-32 0 -63 -5 -70 -12z"/>
<path d="M10532 508 c-19 -19 -14 -48 11 -58 12 -5 42 -26 67 -48 l45 -40 -49
-43 c-27 -24 -59 -50 -72 -57 -28 -15 -33 -57 -8 -66 32 -12 141 -6 154 9 13
16 5 55 -13 55 -7 1 1 12 17 25 l30 24 29 -21 c25 -18 27 -22 13 -30 -9 -5
-16 -17 -16 -27 0 -33 24 -42 102 -39 71 3 73 4 76 30 2 20 -3 30 -20 39 -13
6 -47 32 -76 56 l-52 45 52 44 c29 24 58 44 65 44 18 0 26 39 12 56 -18 22
-138 16 -153 -8 -8 -13 -8 -23 0 -35 9 -14 6 -21 -10 -34 -18 -15 -23 -15 -43
-2 -19 12 -20 18 -11 38 18 40 -4 55 -76 55 -35 0 -67 -5 -74 -12z"/>
</g>
</svg>
